<svg width="930" height="184" viewBox="0 0 930 184" fill="none" xmlns="http://www.w3.org/2000/svg">
<rect width="465" height="92" transform="scale(2)" fill="white"/>
<path d="M293.219 53.9883V60H289.703V42.9375H296.359C297.641 42.9375 298.766 43.1719 299.734 43.6406C300.711 44.1094 301.461 44.7773 301.984 45.6445C302.508 46.5039 302.77 47.4844 302.77 48.5859C302.77 50.2578 302.195 51.5781 301.047 52.5469C299.906 53.5078 298.324 53.9883 296.301 53.9883H293.219ZM293.219 51.1406H296.359C297.289 51.1406 297.996 50.9219 298.48 50.4844C298.973 50.0469 299.219 49.4219 299.219 48.6094C299.219 47.7734 298.973 47.0977 298.48 46.582C297.988 46.0664 297.309 45.8008 296.441 45.7852H293.219V51.1406ZM312.18 60C312.023 59.6953 311.91 59.3164 311.84 58.8633C311.02 59.7773 309.953 60.2344 308.641 60.2344C307.398 60.2344 306.367 59.875 305.547 59.1562C304.734 58.4375 304.328 57.5312 304.328 56.4375C304.328 55.0938 304.824 54.0625 305.816 53.3438C306.816 52.625 308.258 52.2617 310.141 52.2539H311.699V51.5273C311.699 50.9414 311.547 50.4727 311.242 50.1211C310.945 49.7695 310.473 49.5938 309.824 49.5938C309.254 49.5938 308.805 49.7305 308.477 50.0039C308.156 50.2773 307.996 50.6523 307.996 51.1289H304.609C304.609 50.3945 304.836 49.7148 305.289 49.0898C305.742 48.4648 306.383 47.9766 307.211 47.625C308.039 47.2656 308.969 47.0859 310 47.0859C311.562 47.0859 312.801 47.4805 313.715 48.2695C314.637 49.0508 315.098 50.1523 315.098 51.5742V57.0703C315.105 58.2734 315.273 59.1836 315.602 59.8008V60H312.18ZM309.379 57.6445C309.879 57.6445 310.34 57.5352 310.762 57.3164C311.184 57.0898 311.496 56.7891 311.699 56.4141V54.2344H310.434C308.738 54.2344 307.836 54.8203 307.727 55.9922L307.715 56.1914C307.715 56.6133 307.863 56.9609 308.16 57.2344C308.457 57.5078 308.863 57.6445 309.379 57.6445ZM321.754 44.2031V47.3203H323.922V49.8047H321.754V56.1328C321.754 56.6016 321.844 56.9375 322.023 57.1406C322.203 57.3438 322.547 57.4453 323.055 57.4453C323.43 57.4453 323.762 57.418 324.051 57.3633V59.9297C323.387 60.1328 322.703 60.2344 322 60.2344C319.625 60.2344 318.414 59.0352 318.367 56.6367V49.8047H316.516V47.3203H318.367V44.2031H321.754ZM329.863 44.2031V47.3203H332.031V49.8047H329.863V56.1328C329.863 56.6016 329.953 56.9375 330.133 57.1406C330.312 57.3438 330.656 57.4453 331.164 57.4453C331.539 57.4453 331.871 57.418 332.16 57.3633V59.9297C331.496 60.1328 330.812 60.2344 330.109 60.2344C327.734 60.2344 326.523 59.0352 326.477 56.6367V49.8047H324.625V47.3203H326.477V44.2031H329.863ZM339.754 60.2344C337.895 60.2344 336.379 59.6641 335.207 58.5234C334.043 57.3828 333.461 55.8633 333.461 53.9648V53.6367C333.461 52.3633 333.707 51.2266 334.199 50.2266C334.691 49.2188 335.387 48.4453 336.285 47.9062C337.191 47.3594 338.223 47.0859 339.379 47.0859C341.113 47.0859 342.477 47.6328 343.469 48.7266C344.469 49.8203 344.969 51.3711 344.969 53.3789V54.7617H336.895C337.004 55.5898 337.332 56.2539 337.879 56.7539C338.434 57.2539 339.133 57.5039 339.977 57.5039C341.281 57.5039 342.301 57.0312 343.035 56.0859L344.699 57.9492C344.191 58.668 343.504 59.2305 342.637 59.6367C341.77 60.0352 340.809 60.2344 339.754 60.2344ZM339.367 49.8281C338.695 49.8281 338.148 50.0547 337.727 50.5078C337.312 50.9609 337.047 51.6094 336.93 52.4531H341.641V52.1836C341.625 51.4336 341.422 50.8555 341.031 50.4492C340.641 50.0352 340.086 49.8281 339.367 49.8281ZM354.027 50.4961C353.566 50.4336 353.16 50.4023 352.809 50.4023C351.527 50.4023 350.688 50.8359 350.289 51.7031V60H346.902V47.3203H350.102L350.195 48.832C350.875 47.668 351.816 47.0859 353.02 47.0859C353.395 47.0859 353.746 47.1367 354.074 47.2383L354.027 50.4961ZM358.785 47.3203L358.891 48.7852C359.797 47.6523 361.012 47.0859 362.535 47.0859C363.879 47.0859 364.879 47.4805 365.535 48.2695C366.191 49.0586 366.527 50.2383 366.543 51.8086V60H363.156V51.8906C363.156 51.1719 363 50.6523 362.688 50.332C362.375 50.0039 361.855 49.8398 361.129 49.8398C360.176 49.8398 359.461 50.2461 358.984 51.0586V60H355.598V47.3203H358.785Z" fill="black"/>
<path d="M305.267 85.92H307.571L311.267 95.304H308.939L307.595 91.68L306.467 88.44H306.371L305.243 91.68L303.899 95.304H301.571L305.267 85.92Z" fill="#0072B2"/>
<path d="M315.313 98.832C315.313 98.176 315.465 97.6 315.769 97.104C316.073 96.592 316.553 96.16 317.209 95.808C317.865 95.456 318.705 95.168 319.729 94.944C320.753 94.72 321.993 94.56 323.449 94.464C323.401 93.792 323.161 93.24 322.729 92.808C322.297 92.376 321.601 92.16 320.641 92.16C319.969 92.16 319.305 92.288 318.649 92.544C318.009 92.784 317.385 93.072 316.777 93.408L315.769 91.56C316.489 91.144 317.313 90.768 318.241 90.432C319.169 90.096 320.137 89.928 321.145 89.928C322.793 89.928 324.049 90.368 324.913 91.248C325.777 92.112 326.209 93.368 326.209 95.016V102H323.953L323.737 100.536H323.665C323.041 101.016 322.345 101.432 321.577 101.784C320.825 102.12 320.049 102.288 319.249 102.288C318.673 102.288 318.145 102.2 317.665 102.024C317.185 101.864 316.769 101.632 316.417 101.328C316.065 101.024 315.793 100.664 315.601 100.248C315.409 99.816 315.313 99.344 315.313 98.832ZM317.977 98.616C317.977 99.144 318.177 99.528 318.577 99.768C318.993 100.008 319.497 100.128 320.089 100.128C320.681 100.128 321.249 100 321.793 99.744C322.353 99.472 322.905 99.12 323.449 98.688V96.192C322.393 96.272 321.513 96.384 320.809 96.528C320.105 96.656 319.545 96.824 319.129 97.032C318.713 97.24 318.417 97.48 318.241 97.752C318.065 98.008 317.977 98.296 317.977 98.616ZM329.968 85.056H332.752V89.424L332.656 91.488C333.168 91.008 333.744 90.632 334.384 90.36C335.024 90.072 335.664 89.928 336.304 89.928C337.072 89.928 337.752 90.072 338.344 90.36C338.936 90.632 339.44 91.032 339.856 91.56C340.272 92.072 340.584 92.696 340.792 93.432C341.016 94.168 341.128 94.992 341.128 95.904C341.128 96.912 340.984 97.816 340.696 98.616C340.408 99.4 340.016 100.064 339.52 100.608C339.04 101.152 338.48 101.568 337.84 101.856C337.216 102.144 336.568 102.288 335.896 102.288C335.336 102.288 334.752 102.152 334.144 101.88C333.536 101.608 332.976 101.216 332.464 100.704H332.392L332.152 102H329.968V85.056ZM332.752 98.928C333.184 99.328 333.632 99.608 334.096 99.768C334.56 99.928 334.976 100.008 335.344 100.008C336.176 100.008 336.872 99.672 337.432 99C337.992 98.312 338.272 97.296 338.272 95.952C338.272 94.768 338.056 93.848 337.624 93.192C337.192 92.536 336.496 92.208 335.536 92.208C335.088 92.208 334.632 92.32 334.168 92.544C333.704 92.768 333.232 93.128 332.752 93.624V98.928ZM344.143 96.12C344.143 95.144 344.319 94.272 344.671 93.504C345.039 92.736 345.527 92.088 346.135 91.56C346.743 91.032 347.455 90.632 348.271 90.36C349.087 90.072 349.943 89.928 350.839 89.928C351.799 89.928 352.639 90.088 353.359 90.408C354.095 90.728 354.711 91.12 355.207 91.584L353.887 93.312C353.423 92.944 352.951 92.664 352.471 92.472C352.007 92.28 351.511 92.184 350.983 92.184C349.799 92.184 348.839 92.544 348.103 93.264C347.367 93.968 346.999 94.92 346.999 96.12C346.999 96.712 347.095 97.248 347.287 97.728C347.479 98.208 347.743 98.624 348.079 98.976C348.431 99.312 348.847 99.576 349.327 99.768C349.807 99.944 350.335 100.032 350.911 100.032C351.583 100.032 352.191 99.904 352.735 99.648C353.295 99.392 353.807 99.088 354.271 98.736L355.423 100.512C354.751 101.104 353.999 101.552 353.167 101.856C352.335 102.144 351.495 102.288 350.647 102.288C349.719 102.288 348.855 102.152 348.055 101.88C347.271 101.608 346.583 101.208 345.991 100.68C345.415 100.152 344.959 99.504 344.623 98.736C344.303 97.968 344.143 97.096 344.143 96.12Z" fill="#B82629"/>
<rect x="234" y="26" width="182" height="46" stroke="black"/>
<rect x="234" y="72" width="182" height="44" stroke="black"/>
<rect x="234" y="72" width="182" height="44" stroke="black"/>
<path d="M108.496 56.4844H102.332L101.16 60H97.4219L103.773 42.9375H107.031L113.418 60H109.68L108.496 56.4844ZM103.281 53.6367H107.547L105.402 47.25L103.281 53.6367ZM117.344 47.3203L117.449 48.7852C118.355 47.6523 119.57 47.0859 121.094 47.0859C122.438 47.0859 123.438 47.4805 124.094 48.2695C124.75 49.0586 125.086 50.2383 125.102 51.8086V60H121.715V51.8906C121.715 51.1719 121.559 50.6523 121.246 50.332C120.934 50.0039 120.414 49.8398 119.688 49.8398C118.734 49.8398 118.02 50.2461 117.543 51.0586V60H114.156V47.3203H117.344ZM132.953 57.5039C133.578 57.5039 134.086 57.332 134.477 56.9883C134.867 56.6445 135.07 56.1875 135.086 55.6172H138.262C138.254 56.4766 138.02 57.2656 137.559 57.9844C137.098 58.6953 136.465 59.25 135.66 59.6484C134.863 60.0391 133.98 60.2344 133.012 60.2344C131.199 60.2344 129.77 59.6602 128.723 58.5117C127.676 57.3555 127.152 55.7617 127.152 53.7305V53.5078C127.152 51.5547 127.672 49.9961 128.711 48.832C129.75 47.668 131.176 47.0859 132.988 47.0859C134.574 47.0859 135.844 47.5391 136.797 48.4453C137.758 49.3438 138.246 50.543 138.262 52.043H135.086C135.07 51.3867 134.867 50.8555 134.477 50.4492C134.086 50.0352 133.57 49.8281 132.93 49.8281C132.141 49.8281 131.543 50.1172 131.137 50.6953C130.738 51.2656 130.539 52.1953 130.539 53.4844V53.8359C130.539 55.1406 130.738 56.0781 131.137 56.6484C131.535 57.2188 132.141 57.5039 132.953 57.5039ZM143.5 48.7031C144.398 47.625 145.527 47.0859 146.887 47.0859C149.637 47.0859 151.031 48.6836 151.07 51.8789V60H147.684V51.9727C147.684 51.2461 147.527 50.7109 147.215 50.3672C146.902 50.0156 146.383 49.8398 145.656 49.8398C144.664 49.8398 143.945 50.2227 143.5 50.9883V60H140.113V42H143.5V48.7031ZM153.098 53.543C153.098 52.2852 153.34 51.1641 153.824 50.1797C154.309 49.1953 155.004 48.4336 155.91 47.8945C156.824 47.3555 157.883 47.0859 159.086 47.0859C160.797 47.0859 162.191 47.6094 163.27 48.6562C164.355 49.7031 164.961 51.125 165.086 52.9219L165.109 53.7891C165.109 55.7344 164.566 57.2969 163.48 58.4766C162.395 59.6484 160.938 60.2344 159.109 60.2344C157.281 60.2344 155.82 59.6484 154.727 58.4766C153.641 57.3047 153.098 55.7109 153.098 53.6953V53.543ZM156.484 53.7891C156.484 54.9922 156.711 55.9141 157.164 56.5547C157.617 57.1875 158.266 57.5039 159.109 57.5039C159.93 57.5039 160.57 57.1914 161.031 56.5664C161.492 55.9336 161.723 54.9258 161.723 53.543C161.723 52.3633 161.492 51.4492 161.031 50.8008C160.57 50.1523 159.922 49.8281 159.086 49.8281C158.258 49.8281 157.617 50.1523 157.164 50.8008C156.711 51.4414 156.484 52.4375 156.484 53.7891ZM174.32 50.4961C173.859 50.4336 173.453 50.4023 173.102 50.4023C171.82 50.4023 170.98 50.8359 170.582 51.7031V60H167.195V47.3203H170.395L170.488 48.832C171.168 47.668 172.109 47.0859 173.312 47.0859C173.688 47.0859 174.039 47.1367 174.367 47.2383L174.32 50.4961Z" fill="black"/>
<rect x="34" y="26" width="200" height="46" stroke="black"/>
<path d="M84.9648 102V84.9375H90.543C92.3945 84.9375 93.7852 85.3203 94.7148 86.0859C95.6523 86.8516 96.1211 87.9844 96.1211 89.4844C96.1211 90.2812 95.8945 90.9883 95.4414 91.6055C94.9883 92.2148 94.3711 92.6875 93.5898 93.0234C94.5117 93.2812 95.2383 93.7734 95.7695 94.5C96.3086 95.2188 96.5781 96.0781 96.5781 97.0781C96.5781 98.6094 96.082 99.8125 95.0898 100.688C94.0977 101.562 92.6953 102 90.8828 102H84.9648ZM87.2148 94.0195V100.16H90.9297C91.9766 100.16 92.8008 99.8906 93.4023 99.3516C94.0117 98.8047 94.3164 98.0547 94.3164 97.1016C94.3164 95.0469 93.1992 94.0195 90.9648 94.0195H87.2148ZM87.2148 92.2148H90.6133C91.5977 92.2148 92.3828 91.9688 92.9688 91.4766C93.5625 90.9844 93.8594 90.3164 93.8594 89.4727C93.8594 88.5352 93.5859 87.8555 93.0391 87.4336C92.4922 87.0039 91.6602 86.7891 90.543 86.7891H87.2148V92.2148ZM104.84 102.234C103.121 102.234 101.723 101.672 100.645 100.547C99.5664 99.4141 99.0273 97.9023 99.0273 96.0117V95.6133C99.0273 94.3555 99.2656 93.2344 99.7422 92.25C100.227 91.2578 100.898 90.4844 101.758 89.9297C102.625 89.3672 103.562 89.0859 104.57 89.0859C106.219 89.0859 107.5 89.6289 108.414 90.7148C109.328 91.8008 109.785 93.3555 109.785 95.3789V96.2812H101.195C101.227 97.5312 101.59 98.543 102.285 99.3164C102.988 100.082 103.879 100.465 104.957 100.465C105.723 100.465 106.371 100.309 106.902 99.9961C107.434 99.6836 107.898 99.2695 108.297 98.7539L109.621 99.7852C108.559 101.418 106.965 102.234 104.84 102.234ZM104.57 90.8672C103.695 90.8672 102.961 91.1875 102.367 91.8281C101.773 92.4609 101.406 93.3516 101.266 94.5H107.617V94.3359C107.555 93.2344 107.258 92.3828 106.727 91.7812C106.195 91.1719 105.477 90.8672 104.57 90.8672ZM111.789 95.5547C111.789 93.5781 112.246 92.0078 113.16 90.8438C114.074 89.6719 115.285 89.0859 116.793 89.0859C118.34 89.0859 119.547 89.6328 120.414 90.7266L120.52 89.3203H122.5V101.695C122.5 103.336 122.012 104.629 121.035 105.574C120.066 106.52 118.762 106.992 117.121 106.992C116.207 106.992 115.312 106.797 114.438 106.406C113.562 106.016 112.895 105.48 112.434 104.801L113.559 103.5C114.488 104.648 115.625 105.223 116.969 105.223C118.023 105.223 118.844 104.926 119.43 104.332C120.023 103.738 120.32 102.902 120.32 101.824V100.734C119.453 101.734 118.27 102.234 116.77 102.234C115.285 102.234 114.082 101.637 113.16 100.441C112.246 99.2461 111.789 97.6172 111.789 95.5547ZM113.969 95.8008C113.969 97.2305 114.262 98.3555 114.848 99.1758C115.434 99.9883 116.254 100.395 117.309 100.395C118.676 100.395 119.68 99.7734 120.32 98.5312V92.7422C119.656 91.5312 118.66 90.9258 117.332 90.9258C116.277 90.9258 115.453 91.3359 114.859 92.1562C114.266 92.9766 113.969 94.1914 113.969 95.8008ZM128.137 102H125.969V89.3203H128.137V102ZM125.793 85.957C125.793 85.6055 125.898 85.3086 126.109 85.0664C126.328 84.8242 126.648 84.7031 127.07 84.7031C127.492 84.7031 127.812 84.8242 128.031 85.0664C128.25 85.3086 128.359 85.6055 128.359 85.957C128.359 86.3086 128.25 86.6016 128.031 86.8359C127.812 87.0703 127.492 87.1875 127.07 87.1875C126.648 87.1875 126.328 87.0703 126.109 86.8359C125.898 86.6016 125.793 86.3086 125.793 85.957ZM133.668 89.3203L133.738 90.9141C134.707 89.6953 135.973 89.0859 137.535 89.0859C140.215 89.0859 141.566 90.5977 141.59 93.6211V102H139.422V93.6094C139.414 92.6953 139.203 92.0195 138.789 91.582C138.383 91.1445 137.746 90.9258 136.879 90.9258C136.176 90.9258 135.559 91.1133 135.027 91.4883C134.496 91.8633 134.082 92.3555 133.785 92.9648V102H131.617V89.3203H133.668ZM146.91 89.3203L146.98 90.9141C147.949 89.6953 149.215 89.0859 150.777 89.0859C153.457 89.0859 154.809 90.5977 154.832 93.6211V102H152.664V93.6094C152.656 92.6953 152.445 92.0195 152.031 91.582C151.625 91.1445 150.988 90.9258 150.121 90.9258C149.418 90.9258 148.801 91.1133 148.27 91.4883C147.738 91.8633 147.324 92.3555 147.027 92.9648V102H144.859V89.3203H146.91ZM160.457 102H158.289V89.3203H160.457V102ZM158.113 85.957C158.113 85.6055 158.219 85.3086 158.43 85.0664C158.648 84.8242 158.969 84.7031 159.391 84.7031C159.812 84.7031 160.133 84.8242 160.352 85.0664C160.57 85.3086 160.68 85.6055 160.68 85.957C160.68 86.3086 160.57 86.6016 160.352 86.8359C160.133 87.0703 159.812 87.1875 159.391 87.1875C158.969 87.1875 158.648 87.0703 158.43 86.8359C158.219 86.6016 158.113 86.3086 158.113 85.957ZM165.988 89.3203L166.059 90.9141C167.027 89.6953 168.293 89.0859 169.855 89.0859C172.535 89.0859 173.887 90.5977 173.91 93.6211V102H171.742V93.6094C171.734 92.6953 171.523 92.0195 171.109 91.582C170.703 91.1445 170.066 90.9258 169.199 90.9258C168.496 90.9258 167.879 91.1133 167.348 91.4883C166.816 91.8633 166.402 92.3555 166.105 92.9648V102H163.938V89.3203H165.988ZM176.664 95.5547C176.664 93.5781 177.121 92.0078 178.035 90.8438C178.949 89.6719 180.16 89.0859 181.668 89.0859C183.215 89.0859 184.422 89.6328 185.289 90.7266L185.395 89.3203H187.375V101.695C187.375 103.336 186.887 104.629 185.91 105.574C184.941 106.52 183.637 106.992 181.996 106.992C181.082 106.992 180.188 106.797 179.312 106.406C178.438 106.016 177.77 105.48 177.309 104.801L178.434 103.5C179.363 104.648 180.5 105.223 181.844 105.223C182.898 105.223 183.719 104.926 184.305 104.332C184.898 103.738 185.195 102.902 185.195 101.824V100.734C184.328 101.734 183.145 102.234 181.645 102.234C180.16 102.234 178.957 101.637 178.035 100.441C177.121 99.2461 176.664 97.6172 176.664 95.5547ZM178.844 95.8008C178.844 97.2305 179.137 98.3555 179.723 99.1758C180.309 99.9883 181.129 100.395 182.184 100.395C183.551 100.395 184.555 99.7734 185.195 98.5312V92.7422C184.531 91.5312 183.535 90.9258 182.207 90.9258C181.152 90.9258 180.328 91.3359 179.734 92.1562C179.141 92.9766 178.844 94.1914 178.844 95.8008Z" fill="black"/>
<rect x="34" y="72" width="200" height="44" stroke="black"/>
<rect x="34" y="72" width="200" height="44" stroke="black"/>
<path d="M604.637 52.6055H597.887V57.1758H605.809V60H594.371V42.9375H605.785V45.7852H597.887V49.8516H604.637V52.6055ZM612.477 51.1055L614.609 47.3203H618.23L614.621 53.5312L618.383 60H614.75L612.488 56.0156L610.238 60H606.594L610.355 53.5312L606.758 47.3203H610.391L612.477 51.1055ZM631.273 53.7773C631.273 55.7305 630.828 57.2969 629.938 58.4766C629.055 59.6484 627.859 60.2344 626.352 60.2344C625.07 60.2344 624.035 59.7891 623.246 58.8984V64.875H619.859V47.3203H623L623.117 48.5625C623.938 47.5781 625.008 47.0859 626.328 47.0859C627.891 47.0859 629.105 47.6641 629.973 48.8203C630.84 49.9766 631.273 51.5703 631.273 53.6016V53.7773ZM627.887 53.5312C627.887 52.3516 627.676 51.4414 627.254 50.8008C626.84 50.1602 626.234 49.8398 625.438 49.8398C624.375 49.8398 623.645 50.2461 623.246 51.0586V56.25C623.66 57.0859 624.398 57.5039 625.461 57.5039C627.078 57.5039 627.887 56.1797 627.887 53.5312ZM636.957 60H633.559V42H636.957V60ZM647.105 60C646.949 59.6953 646.836 59.3164 646.766 58.8633C645.945 59.7773 644.879 60.2344 643.566 60.2344C642.324 60.2344 641.293 59.875 640.473 59.1562C639.66 58.4375 639.254 57.5312 639.254 56.4375C639.254 55.0938 639.75 54.0625 640.742 53.3438C641.742 52.625 643.184 52.2617 645.066 52.2539H646.625V51.5273C646.625 50.9414 646.473 50.4727 646.168 50.1211C645.871 49.7695 645.398 49.5938 644.75 49.5938C644.18 49.5938 643.73 49.7305 643.402 50.0039C643.082 50.2773 642.922 50.6523 642.922 51.1289H639.535C639.535 50.3945 639.762 49.7148 640.215 49.0898C640.668 48.4648 641.309 47.9766 642.137 47.625C642.965 47.2656 643.895 47.0859 644.926 47.0859C646.488 47.0859 647.727 47.4805 648.641 48.2695C649.562 49.0508 650.023 50.1523 650.023 51.5742V57.0703C650.031 58.2734 650.199 59.1836 650.527 59.8008V60H647.105ZM644.305 57.6445C644.805 57.6445 645.266 57.5352 645.688 57.3164C646.109 57.0898 646.422 56.7891 646.625 56.4141V54.2344H645.359C643.664 54.2344 642.762 54.8203 642.652 55.9922L642.641 56.1914C642.641 56.6133 642.789 56.9609 643.086 57.2344C643.383 57.5078 643.789 57.6445 644.305 57.6445ZM655.742 47.3203L655.848 48.7852C656.754 47.6523 657.969 47.0859 659.492 47.0859C660.836 47.0859 661.836 47.4805 662.492 48.2695C663.148 49.0586 663.484 50.2383 663.5 51.8086V60H660.113V51.8906C660.113 51.1719 659.957 50.6523 659.645 50.332C659.332 50.0039 658.812 49.8398 658.086 49.8398C657.133 49.8398 656.418 50.2461 655.941 51.0586V60H652.555V47.3203H655.742ZM673.426 60C673.27 59.6953 673.156 59.3164 673.086 58.8633C672.266 59.7773 671.199 60.2344 669.887 60.2344C668.645 60.2344 667.613 59.875 666.793 59.1562C665.98 58.4375 665.574 57.5312 665.574 56.4375C665.574 55.0938 666.07 54.0625 667.062 53.3438C668.062 52.625 669.504 52.2617 671.387 52.2539H672.945V51.5273C672.945 50.9414 672.793 50.4727 672.488 50.1211C672.191 49.7695 671.719 49.5938 671.07 49.5938C670.5 49.5938 670.051 49.7305 669.723 50.0039C669.402 50.2773 669.242 50.6523 669.242 51.1289H665.855C665.855 50.3945 666.082 49.7148 666.535 49.0898C666.988 48.4648 667.629 47.9766 668.457 47.625C669.285 47.2656 670.215 47.0859 671.246 47.0859C672.809 47.0859 674.047 47.4805 674.961 48.2695C675.883 49.0508 676.344 50.1523 676.344 51.5742V57.0703C676.352 58.2734 676.52 59.1836 676.848 59.8008V60H673.426ZM670.625 57.6445C671.125 57.6445 671.586 57.5352 672.008 57.3164C672.43 57.0898 672.742 56.7891 672.945 56.4141V54.2344H671.68C669.984 54.2344 669.082 54.8203 668.973 55.9922L668.961 56.1914C668.961 56.6133 669.109 56.9609 669.406 57.2344C669.703 57.5078 670.109 57.6445 670.625 57.6445ZM683 44.2031V47.3203H685.168V49.8047H683V56.1328C683 56.6016 683.09 56.9375 683.27 57.1406C683.449 57.3438 683.793 57.4453 684.301 57.4453C684.676 57.4453 685.008 57.418 685.297 57.3633V59.9297C684.633 60.1328 683.949 60.2344 683.246 60.2344C680.871 60.2344 679.66 59.0352 679.613 56.6367V49.8047H677.762V47.3203H679.613V44.2031H683ZM690.629 60H687.23V47.3203H690.629V60ZM687.031 44.0391C687.031 43.5312 687.199 43.1133 687.535 42.7852C687.879 42.457 688.344 42.293 688.93 42.293C689.508 42.293 689.969 42.457 690.312 42.7852C690.656 43.1133 690.828 43.5312 690.828 44.0391C690.828 44.5547 690.652 44.9766 690.301 45.3047C689.957 45.6328 689.5 45.7969 688.93 45.7969C688.359 45.7969 687.898 45.6328 687.547 45.3047C687.203 44.9766 687.031 44.5547 687.031 44.0391ZM692.902 53.543C692.902 52.2852 693.145 51.1641 693.629 50.1797C694.113 49.1953 694.809 48.4336 695.715 47.8945C696.629 47.3555 697.688 47.0859 698.891 47.0859C700.602 47.0859 701.996 47.6094 703.074 48.6562C704.16 49.7031 704.766 51.125 704.891 52.9219L704.914 53.7891C704.914 55.7344 704.371 57.2969 703.285 58.4766C702.199 59.6484 700.742 60.2344 698.914 60.2344C697.086 60.2344 695.625 59.6484 694.531 58.4766C693.445 57.3047 692.902 55.7109 692.902 53.6953V53.543ZM696.289 53.7891C696.289 54.9922 696.516 55.9141 696.969 56.5547C697.422 57.1875 698.07 57.5039 698.914 57.5039C699.734 57.5039 700.375 57.1914 700.836 56.5664C701.297 55.9336 701.527 54.9258 701.527 53.543C701.527 52.3633 701.297 51.4492 700.836 50.8008C700.375 50.1523 699.727 49.8281 698.891 49.8281C698.062 49.8281 697.422 50.1523 696.969 50.8008C696.516 51.4414 696.289 52.4375 696.289 53.7891ZM710.117 47.3203L710.223 48.7852C711.129 47.6523 712.344 47.0859 713.867 47.0859C715.211 47.0859 716.211 47.4805 716.867 48.2695C717.523 49.0586 717.859 50.2383 717.875 51.8086V60H714.488V51.8906C714.488 51.1719 714.332 50.6523 714.02 50.332C713.707 50.0039 713.188 49.8398 712.461 49.8398C711.508 49.8398 710.793 50.2461 710.316 51.0586V60H706.93V47.3203H710.117Z" fill="black"/>
<path d="M432.887 84.9375L438.465 98.8594L444.043 84.9375H446.961V102H444.711V95.3555L444.922 88.1836L439.32 102H437.598L432.008 88.2188L432.23 95.3555V102H429.98V84.9375H432.887ZM458.422 102C458.297 101.75 458.195 101.305 458.117 100.664C457.109 101.711 455.906 102.234 454.508 102.234C453.258 102.234 452.23 101.883 451.426 101.18C450.629 100.469 450.23 99.5703 450.23 98.4844C450.23 97.1641 450.73 96.1406 451.73 95.4141C452.738 94.6797 454.152 94.3125 455.973 94.3125H458.082V93.3164C458.082 92.5586 457.855 91.957 457.402 91.5117C456.949 91.0586 456.281 90.832 455.398 90.832C454.625 90.832 453.977 91.0273 453.453 91.418C452.93 91.8086 452.668 92.2812 452.668 92.8359H450.488C450.488 92.2031 450.711 91.5938 451.156 91.0078C451.609 90.4141 452.219 89.9453 452.984 89.6016C453.758 89.2578 454.605 89.0859 455.527 89.0859C456.988 89.0859 458.133 89.4531 458.961 90.1875C459.789 90.9141 460.219 91.918 460.25 93.1992V99.0352C460.25 100.199 460.398 101.125 460.695 101.812V102H458.422ZM454.824 100.348C455.504 100.348 456.148 100.172 456.758 99.8203C457.367 99.4688 457.809 99.0117 458.082 98.4492V95.8477H456.383C453.727 95.8477 452.398 96.625 452.398 98.1797C452.398 98.8594 452.625 99.3906 453.078 99.7734C453.531 100.156 454.113 100.348 454.824 100.348ZM466.59 86.25V89.3203H468.957V90.9961H466.59V98.8594C466.59 99.3672 466.695 99.75 466.906 100.008C467.117 100.258 467.477 100.383 467.984 100.383C468.234 100.383 468.578 100.336 469.016 100.242V102C468.445 102.156 467.891 102.234 467.352 102.234C466.383 102.234 465.652 101.941 465.16 101.355C464.668 100.77 464.422 99.9375 464.422 98.8594V90.9961H462.113V89.3203H464.422V86.25H466.59ZM476.586 100.465C477.359 100.465 478.035 100.23 478.613 99.7617C479.191 99.293 479.512 98.707 479.574 98.0039H481.625C481.586 98.7305 481.336 99.4219 480.875 100.078C480.414 100.734 479.797 101.258 479.023 101.648C478.258 102.039 477.445 102.234 476.586 102.234C474.859 102.234 473.484 101.66 472.461 100.512C471.445 99.3555 470.938 97.7773 470.938 95.7773V95.4141C470.938 94.1797 471.164 93.082 471.617 92.1211C472.07 91.1602 472.719 90.4141 473.562 89.8828C474.414 89.3516 475.418 89.0859 476.574 89.0859C477.996 89.0859 479.176 89.5117 480.113 90.3633C481.059 91.2148 481.562 92.3203 481.625 93.6797H479.574C479.512 92.8594 479.199 92.1875 478.637 91.6641C478.082 91.1328 477.395 90.8672 476.574 90.8672C475.473 90.8672 474.617 91.2656 474.008 92.0625C473.406 92.8516 473.105 93.9961 473.105 95.4961V95.9062C473.105 97.3672 473.406 98.4922 474.008 99.2812C474.609 100.07 475.469 100.465 476.586 100.465ZM486.23 90.8555C487.191 89.6758 488.441 89.0859 489.98 89.0859C492.66 89.0859 494.012 90.5977 494.035 93.6211V102H491.867V93.6094C491.859 92.6953 491.648 92.0195 491.234 91.582C490.828 91.1445 490.191 90.9258 489.324 90.9258C488.621 90.9258 488.004 91.1133 487.473 91.4883C486.941 91.8633 486.527 92.3555 486.23 92.9648V102H484.062V84H486.23V90.8555ZM502.543 102.234C500.824 102.234 499.426 101.672 498.348 100.547C497.27 99.4141 496.73 97.9023 496.73 96.0117V95.6133C496.73 94.3555 496.969 93.2344 497.445 92.25C497.93 91.2578 498.602 90.4844 499.461 89.9297C500.328 89.3672 501.266 89.0859 502.273 89.0859C503.922 89.0859 505.203 89.6289 506.117 90.7148C507.031 91.8008 507.488 93.3555 507.488 95.3789V96.2812H498.898C498.93 97.5312 499.293 98.543 499.988 99.3164C500.691 100.082 501.582 100.465 502.66 100.465C503.426 100.465 504.074 100.309 504.605 99.9961C505.137 99.6836 505.602 99.2695 506 98.7539L507.324 99.7852C506.262 101.418 504.668 102.234 502.543 102.234ZM502.273 90.8672C501.398 90.8672 500.664 91.1875 500.07 91.8281C499.477 92.4609 499.109 93.3516 498.969 94.5H505.32V94.3359C505.258 93.2344 504.961 92.3828 504.43 91.7812C503.898 91.1719 503.18 90.8672 502.273 90.8672ZM517.391 98.6367C517.391 98.0508 517.168 97.5977 516.723 97.2773C516.285 96.9492 515.516 96.668 514.414 96.4336C513.32 96.1992 512.449 95.918 511.801 95.5898C511.16 95.2617 510.684 94.8711 510.371 94.418C510.066 93.9648 509.914 93.4258 509.914 92.8008C509.914 91.7617 510.352 90.8828 511.227 90.1641C512.109 89.4453 513.234 89.0859 514.602 89.0859C516.039 89.0859 517.203 89.457 518.094 90.1992C518.992 90.9414 519.441 91.8906 519.441 93.0469H517.262C517.262 92.4531 517.008 91.9414 516.5 91.5117C516 91.082 515.367 90.8672 514.602 90.8672C513.812 90.8672 513.195 91.0391 512.75 91.3828C512.305 91.7266 512.082 92.1758 512.082 92.7305C512.082 93.2539 512.289 93.6484 512.703 93.9141C513.117 94.1797 513.863 94.4336 514.941 94.6758C516.027 94.918 516.906 95.207 517.578 95.543C518.25 95.8789 518.746 96.2852 519.066 96.7617C519.395 97.2305 519.559 97.8047 519.559 98.4844C519.559 99.6172 519.105 100.527 518.199 101.215C517.293 101.895 516.117 102.234 514.672 102.234C513.656 102.234 512.758 102.055 511.977 101.695C511.195 101.336 510.582 100.836 510.137 100.195C509.699 99.5469 509.48 98.8477 509.48 98.0977H511.648C511.688 98.8242 511.977 99.4023 512.516 99.832C513.062 100.254 513.781 100.465 514.672 100.465C515.492 100.465 516.148 100.301 516.641 99.9727C517.141 99.6367 517.391 99.1914 517.391 98.6367ZM576.887 95.543C576.887 94.3008 577.129 93.1836 577.613 92.1914C578.105 91.1992 578.785 90.4336 579.652 89.8945C580.527 89.3555 581.523 89.0859 582.641 89.0859C584.367 89.0859 585.762 89.6836 586.824 90.8789C587.895 92.0742 588.43 93.6641 588.43 95.6484V95.8008C588.43 97.0352 588.191 98.1445 587.715 99.1289C587.246 100.105 586.57 100.867 585.688 101.414C584.812 101.961 583.805 102.234 582.664 102.234C580.945 102.234 579.551 101.637 578.48 100.441C577.418 99.2461 576.887 97.6641 576.887 95.6953V95.543ZM579.066 95.8008C579.066 97.207 579.391 98.3359 580.039 99.1875C580.695 100.039 581.57 100.465 582.664 100.465C583.766 100.465 584.641 100.035 585.289 99.1758C585.938 98.3086 586.262 97.0977 586.262 95.543C586.262 94.1523 585.93 93.0273 585.266 92.168C584.609 91.3008 583.734 90.8672 582.641 90.8672C581.57 90.8672 580.707 91.293 580.051 92.1445C579.395 92.9961 579.066 94.2148 579.066 95.8008ZM593.199 89.3203L593.27 90.9141C594.238 89.6953 595.504 89.0859 597.066 89.0859C599.746 89.0859 601.098 90.5977 601.121 93.6211V102H598.953V93.6094C598.945 92.6953 598.734 92.0195 598.32 91.582C597.914 91.1445 597.277 90.9258 596.41 90.9258C595.707 90.9258 595.09 91.1133 594.559 91.4883C594.027 91.8633 593.613 92.3555 593.316 92.9648V102H591.148V89.3203H593.199ZM606.746 102H604.578V84H606.746V102ZM614.375 98.8242L617.328 89.3203H619.648L614.551 103.957C613.762 106.066 612.508 107.121 610.789 107.121L610.379 107.086L609.57 106.934V105.176L610.156 105.223C610.891 105.223 611.461 105.074 611.867 104.777C612.281 104.48 612.621 103.938 612.887 103.148L613.367 101.859L608.844 89.3203H611.211L614.375 98.8242ZM635.375 102C635.25 101.75 635.148 101.305 635.07 100.664C634.062 101.711 632.859 102.234 631.461 102.234C630.211 102.234 629.184 101.883 628.379 101.18C627.582 100.469 627.184 99.5703 627.184 98.4844C627.184 97.1641 627.684 96.1406 628.684 95.4141C629.691 94.6797 631.105 94.3125 632.926 94.3125H635.035V93.3164C635.035 92.5586 634.809 91.957 634.355 91.5117C633.902 91.0586 633.234 90.832 632.352 90.832C631.578 90.832 630.93 91.0273 630.406 91.418C629.883 91.8086 629.621 92.2812 629.621 92.8359H627.441C627.441 92.2031 627.664 91.5938 628.109 91.0078C628.562 90.4141 629.172 89.9453 629.938 89.6016C630.711 89.2578 631.559 89.0859 632.48 89.0859C633.941 89.0859 635.086 89.4531 635.914 90.1875C636.742 90.9141 637.172 91.918 637.203 93.1992V99.0352C637.203 100.199 637.352 101.125 637.648 101.812V102H635.375ZM631.777 100.348C632.457 100.348 633.102 100.172 633.711 99.8203C634.32 99.4688 634.762 99.0117 635.035 98.4492V95.8477H633.336C630.68 95.8477 629.352 96.625 629.352 98.1797C629.352 98.8594 629.578 99.3906 630.031 99.7734C630.484 100.156 631.066 100.348 631.777 100.348ZM643.543 86.25V89.3203H645.91V90.9961H643.543V98.8594C643.543 99.3672 643.648 99.75 643.859 100.008C644.07 100.258 644.43 100.383 644.938 100.383C645.188 100.383 645.531 100.336 645.969 100.242V102C645.398 102.156 644.844 102.234 644.305 102.234C643.336 102.234 642.605 101.941 642.113 101.355C641.621 100.77 641.375 99.9375 641.375 98.8594V90.9961H639.066V89.3203H641.375V86.25H643.543ZM657.348 86.25V89.3203H659.715V90.9961H657.348V98.8594C657.348 99.3672 657.453 99.75 657.664 100.008C657.875 100.258 658.234 100.383 658.742 100.383C658.992 100.383 659.336 100.336 659.773 100.242V102C659.203 102.156 658.648 102.234 658.109 102.234C657.141 102.234 656.41 101.941 655.918 101.355C655.426 100.77 655.18 99.9375 655.18 98.8594V90.9961H652.871V89.3203H655.18V86.25H657.348ZM664.426 90.8555C665.387 89.6758 666.637 89.0859 668.176 89.0859C670.855 89.0859 672.207 90.5977 672.23 93.6211V102H670.062V93.6094C670.055 92.6953 669.844 92.0195 669.43 91.582C669.023 91.1445 668.387 90.9258 667.52 90.9258C666.816 90.9258 666.199 91.1133 665.668 91.4883C665.137 91.8633 664.723 92.3555 664.426 92.9648V102H662.258V84H664.426V90.8555ZM680.738 102.234C679.02 102.234 677.621 101.672 676.543 100.547C675.465 99.4141 674.926 97.9023 674.926 96.0117V95.6133C674.926 94.3555 675.164 93.2344 675.641 92.25C676.125 91.2578 676.797 90.4844 677.656 89.9297C678.523 89.3672 679.461 89.0859 680.469 89.0859C682.117 89.0859 683.398 89.6289 684.312 90.7148C685.227 91.8008 685.684 93.3555 685.684 95.3789V96.2812H677.094C677.125 97.5312 677.488 98.543 678.184 99.3164C678.887 100.082 679.777 100.465 680.855 100.465C681.621 100.465 682.27 100.309 682.801 99.9961C683.332 99.6836 683.797 99.2695 684.195 98.7539L685.52 99.7852C684.457 101.418 682.863 102.234 680.738 102.234ZM680.469 90.8672C679.594 90.8672 678.859 91.1875 678.266 91.8281C677.672 92.4609 677.305 93.3516 677.164 94.5H683.516V94.3359C683.453 93.2344 683.156 92.3828 682.625 91.7812C682.094 91.1719 681.375 90.8672 680.469 90.8672ZM701.539 98.6367C701.539 98.0508 701.316 97.5977 700.871 97.2773C700.434 96.9492 699.664 96.668 698.562 96.4336C697.469 96.1992 696.598 95.918 695.949 95.5898C695.309 95.2617 694.832 94.8711 694.52 94.418C694.215 93.9648 694.062 93.4258 694.062 92.8008C694.062 91.7617 694.5 90.8828 695.375 90.1641C696.258 89.4453 697.383 89.0859 698.75 89.0859C700.188 89.0859 701.352 89.457 702.242 90.1992C703.141 90.9414 703.59 91.8906 703.59 93.0469H701.41C701.41 92.4531 701.156 91.9414 700.648 91.5117C700.148 91.082 699.516 90.8672 698.75 90.8672C697.961 90.8672 697.344 91.0391 696.898 91.3828C696.453 91.7266 696.23 92.1758 696.23 92.7305C696.23 93.2539 696.438 93.6484 696.852 93.9141C697.266 94.1797 698.012 94.4336 699.09 94.6758C700.176 94.918 701.055 95.207 701.727 95.543C702.398 95.8789 702.895 96.2852 703.215 96.7617C703.543 97.2305 703.707 97.8047 703.707 98.4844C703.707 99.6172 703.254 100.527 702.348 101.215C701.441 101.895 700.266 102.234 698.82 102.234C697.805 102.234 696.906 102.055 696.125 101.695C695.344 101.336 694.73 100.836 694.285 100.195C693.848 99.5469 693.629 98.8477 693.629 98.0977H695.797C695.836 98.8242 696.125 99.4023 696.664 99.832C697.211 100.254 697.93 100.465 698.82 100.465C699.641 100.465 700.297 100.301 700.789 99.9727C701.289 99.6367 701.539 99.1914 701.539 98.6367ZM709.473 86.25V89.3203H711.84V90.9961H709.473V98.8594C709.473 99.3672 709.578 99.75 709.789 100.008C710 100.258 710.359 100.383 710.867 100.383C711.117 100.383 711.461 100.336 711.898 100.242V102C711.328 102.156 710.773 102.234 710.234 102.234C709.266 102.234 708.535 101.941 708.043 101.355C707.551 100.77 707.305 99.9375 707.305 98.8594V90.9961H704.996V89.3203H707.305V86.25H709.473ZM722.211 102C722.086 101.75 721.984 101.305 721.906 100.664C720.898 101.711 719.695 102.234 718.297 102.234C717.047 102.234 716.02 101.883 715.215 101.18C714.418 100.469 714.02 99.5703 714.02 98.4844C714.02 97.1641 714.52 96.1406 715.52 95.4141C716.527 94.6797 717.941 94.3125 719.762 94.3125H721.871V93.3164C721.871 92.5586 721.645 91.957 721.191 91.5117C720.738 91.0586 720.07 90.832 719.188 90.832C718.414 90.832 717.766 91.0273 717.242 91.418C716.719 91.8086 716.457 92.2812 716.457 92.8359H714.277C714.277 92.2031 714.5 91.5938 714.945 91.0078C715.398 90.4141 716.008 89.9453 716.773 89.6016C717.547 89.2578 718.395 89.0859 719.316 89.0859C720.777 89.0859 721.922 89.4531 722.75 90.1875C723.578 90.9141 724.008 91.918 724.039 93.1992V99.0352C724.039 100.199 724.188 101.125 724.484 101.812V102H722.211ZM718.613 100.348C719.293 100.348 719.938 100.172 720.547 99.8203C721.156 99.4688 721.598 99.0117 721.871 98.4492V95.8477H720.172C717.516 95.8477 716.188 96.625 716.188 98.1797C716.188 98.8594 716.414 99.3906 716.867 99.7734C717.32 100.156 717.902 100.348 718.613 100.348ZM733.566 91.2656C733.238 91.2109 732.883 91.1836 732.5 91.1836C731.078 91.1836 730.113 91.7891 729.605 93V102H727.438V89.3203H729.547L729.582 90.7852C730.293 89.6523 731.301 89.0859 732.605 89.0859C733.027 89.0859 733.348 89.1406 733.566 89.25V91.2656ZM739.098 86.25V89.3203H741.465V90.9961H739.098V98.8594C739.098 99.3672 739.203 99.75 739.414 100.008C739.625 100.258 739.984 100.383 740.492 100.383C740.742 100.383 741.086 100.336 741.523 100.242V102C740.953 102.156 740.398 102.234 739.859 102.234C738.891 102.234 738.16 101.941 737.668 101.355C737.176 100.77 736.93 99.9375 736.93 98.8594V90.9961H734.621V89.3203H736.93V86.25H739.098ZM749.387 95.543C749.387 94.3008 749.629 93.1836 750.113 92.1914C750.605 91.1992 751.285 90.4336 752.152 89.8945C753.027 89.3555 754.023 89.0859 755.141 89.0859C756.867 89.0859 758.262 89.6836 759.324 90.8789C760.395 92.0742 760.93 93.6641 760.93 95.6484V95.8008C760.93 97.0352 760.691 98.1445 760.215 99.1289C759.746 100.105 759.07 100.867 758.188 101.414C757.312 101.961 756.305 102.234 755.164 102.234C753.445 102.234 752.051 101.637 750.98 100.441C749.918 99.2461 749.387 97.6641 749.387 95.6953V95.543ZM751.566 95.8008C751.566 97.207 751.891 98.3359 752.539 99.1875C753.195 100.039 754.07 100.465 755.164 100.465C756.266 100.465 757.141 100.035 757.789 99.1758C758.438 98.3086 758.762 97.0977 758.762 95.543C758.762 94.1523 758.43 93.0273 757.766 92.168C757.109 91.3008 756.234 90.8672 755.141 90.8672C754.07 90.8672 753.207 91.293 752.551 92.1445C751.895 92.9961 751.566 94.2148 751.566 95.8008ZM764.715 102V90.9961H762.711V89.3203H764.715V88.0195C764.715 86.6602 765.078 85.6094 765.805 84.8672C766.531 84.125 767.559 83.7539 768.887 83.7539C769.387 83.7539 769.883 83.8203 770.375 83.9531L770.258 85.7109C769.891 85.6406 769.5 85.6055 769.086 85.6055C768.383 85.6055 767.84 85.8125 767.457 86.2266C767.074 86.6328 766.883 87.2188 766.883 87.9844V89.3203H769.59V90.9961H766.883V102H764.715ZM780.887 86.25V89.3203H783.254V90.9961H780.887V98.8594C780.887 99.3672 780.992 99.75 781.203 100.008C781.414 100.258 781.773 100.383 782.281 100.383C782.531 100.383 782.875 100.336 783.312 100.242V102C782.742 102.156 782.188 102.234 781.648 102.234C780.68 102.234 779.949 101.941 779.457 101.355C778.965 100.77 778.719 99.9375 778.719 98.8594V90.9961H776.41V89.3203H778.719V86.25H780.887ZM787.965 90.8555C788.926 89.6758 790.176 89.0859 791.715 89.0859C794.395 89.0859 795.746 90.5977 795.77 93.6211V102H793.602V93.6094C793.594 92.6953 793.383 92.0195 792.969 91.582C792.562 91.1445 791.926 90.9258 791.059 90.9258C790.355 90.9258 789.738 91.1133 789.207 91.4883C788.676 91.8633 788.262 92.3555 787.965 92.9648V102H785.797V84H787.965V90.8555ZM804.277 102.234C802.559 102.234 801.16 101.672 800.082 100.547C799.004 99.4141 798.465 97.9023 798.465 96.0117V95.6133C798.465 94.3555 798.703 93.2344 799.18 92.25C799.664 91.2578 800.336 90.4844 801.195 89.9297C802.062 89.3672 803 89.0859 804.008 89.0859C805.656 89.0859 806.938 89.6289 807.852 90.7148C808.766 91.8008 809.223 93.3555 809.223 95.3789V96.2812H800.633C800.664 97.5312 801.027 98.543 801.723 99.3164C802.426 100.082 803.316 100.465 804.395 100.465C805.16 100.465 805.809 100.309 806.34 99.9961C806.871 99.6836 807.336 99.2695 807.734 98.7539L809.059 99.7852C807.996 101.418 806.402 102.234 804.277 102.234ZM804.008 90.8672C803.133 90.8672 802.398 91.1875 801.805 91.8281C801.211 92.4609 800.844 93.3516 800.703 94.5H807.055V94.3359C806.992 93.2344 806.695 92.3828 806.164 91.7812C805.633 91.1719 804.914 90.8672 804.008 90.8672ZM825.078 98.6367C825.078 98.0508 824.855 97.5977 824.41 97.2773C823.973 96.9492 823.203 96.668 822.102 96.4336C821.008 96.1992 820.137 95.918 819.488 95.5898C818.848 95.2617 818.371 94.8711 818.059 94.418C817.754 93.9648 817.602 93.4258 817.602 92.8008C817.602 91.7617 818.039 90.8828 818.914 90.1641C819.797 89.4453 820.922 89.0859 822.289 89.0859C823.727 89.0859 824.891 89.457 825.781 90.1992C826.68 90.9414 827.129 91.8906 827.129 93.0469H824.949C824.949 92.4531 824.695 91.9414 824.188 91.5117C823.688 91.082 823.055 90.8672 822.289 90.8672C821.5 90.8672 820.883 91.0391 820.438 91.3828C819.992 91.7266 819.77 92.1758 819.77 92.7305C819.77 93.2539 819.977 93.6484 820.391 93.9141C820.805 94.1797 821.551 94.4336 822.629 94.6758C823.715 94.918 824.594 95.207 825.266 95.543C825.938 95.8789 826.434 96.2852 826.754 96.7617C827.082 97.2305 827.246 97.8047 827.246 98.4844C827.246 99.6172 826.793 100.527 825.887 101.215C824.98 101.895 823.805 102.234 822.359 102.234C821.344 102.234 820.445 102.055 819.664 101.695C818.883 101.336 818.27 100.836 817.824 100.195C817.387 99.5469 817.168 98.8477 817.168 98.0977H819.336C819.375 98.8242 819.664 99.4023 820.203 99.832C820.75 100.254 821.469 100.465 822.359 100.465C823.18 100.465 823.836 100.301 824.328 99.9727C824.828 99.6367 825.078 99.1914 825.078 98.6367ZM833.012 86.25V89.3203H835.379V90.9961H833.012V98.8594C833.012 99.3672 833.117 99.75 833.328 100.008C833.539 100.258 833.898 100.383 834.406 100.383C834.656 100.383 835 100.336 835.438 100.242V102C834.867 102.156 834.312 102.234 833.773 102.234C832.805 102.234 832.074 101.941 831.582 101.355C831.09 100.77 830.844 99.9375 830.844 98.8594V90.9961H828.535V89.3203H830.844V86.25H833.012ZM844.051 91.2656C843.723 91.2109 843.367 91.1836 842.984 91.1836C841.562 91.1836 840.598 91.7891 840.09 93V102H837.922V89.3203H840.031L840.066 90.7852C840.777 89.6523 841.785 89.0859 843.09 89.0859C843.512 89.0859 843.832 89.1406 844.051 89.25V91.2656ZM848.41 102H846.242V89.3203H848.41V102ZM846.066 85.957C846.066 85.6055 846.172 85.3086 846.383 85.0664C846.602 84.8242 846.922 84.7031 847.344 84.7031C847.766 84.7031 848.086 84.8242 848.305 85.0664C848.523 85.3086 848.633 85.6055 848.633 85.957C848.633 86.3086 848.523 86.6016 848.305 86.8359C848.086 87.0703 847.766 87.1875 847.344 87.1875C846.922 87.1875 846.602 87.0703 846.383 86.8359C846.172 86.6016 846.066 86.3086 846.066 85.957ZM853.941 89.3203L854.012 90.9141C854.98 89.6953 856.246 89.0859 857.809 89.0859C860.488 89.0859 861.84 90.5977 861.863 93.6211V102H859.695V93.6094C859.688 92.6953 859.477 92.0195 859.062 91.582C858.656 91.1445 858.02 90.9258 857.152 90.9258C856.449 90.9258 855.832 91.1133 855.301 91.4883C854.77 91.8633 854.355 92.3555 854.059 92.9648V102H851.891V89.3203H853.941ZM864.617 95.5547C864.617 93.5781 865.074 92.0078 865.988 90.8438C866.902 89.6719 868.113 89.0859 869.621 89.0859C871.168 89.0859 872.375 89.6328 873.242 90.7266L873.348 89.3203H875.328V101.695C875.328 103.336 874.84 104.629 873.863 105.574C872.895 106.52 871.59 106.992 869.949 106.992C869.035 106.992 868.141 106.797 867.266 106.406C866.391 106.016 865.723 105.48 865.262 104.801L866.387 103.5C867.316 104.648 868.453 105.223 869.797 105.223C870.852 105.223 871.672 104.926 872.258 104.332C872.852 103.738 873.148 102.902 873.148 101.824V100.734C872.281 101.734 871.098 102.234 869.598 102.234C868.113 102.234 866.91 101.637 865.988 100.441C865.074 99.2461 864.617 97.6172 864.617 95.5547ZM866.797 95.8008C866.797 97.2305 867.09 98.3555 867.676 99.1758C868.262 99.9883 869.082 100.395 870.137 100.395C871.504 100.395 872.508 99.7734 873.148 98.5312V92.7422C872.484 91.5312 871.488 90.9258 870.16 90.9258C869.105 90.9258 868.281 91.3359 867.688 92.1562C867.094 92.9766 866.797 94.1914 866.797 95.8008Z" fill="black"/>
<path d="M528.399 98.832C528.399 98.176 528.551 97.6 528.855 97.104C529.159 96.592 529.639 96.16 530.295 95.808C530.951 95.456 531.791 95.168 532.815 94.944C533.839 94.72 535.079 94.56 536.535 94.464C536.487 93.792 536.247 93.24 535.815 92.808C535.383 92.376 534.687 92.16 533.727 92.16C533.055 92.16 532.391 92.288 531.735 92.544C531.095 92.784 530.471 93.072 529.863 93.408L528.855 91.56C529.575 91.144 530.399 90.768 531.327 90.432C532.255 90.096 533.223 89.928 534.231 89.928C535.879 89.928 537.135 90.368 537.999 91.248C538.863 92.112 539.295 93.368 539.295 95.016V102H537.039L536.823 100.536H536.751C536.127 101.016 535.431 101.432 534.663 101.784C533.911 102.12 533.135 102.288 532.335 102.288C531.759 102.288 531.231 102.2 530.751 102.024C530.271 101.864 529.855 101.632 529.503 101.328C529.151 101.024 528.879 100.664 528.687 100.248C528.495 99.816 528.399 99.344 528.399 98.832ZM531.063 98.616C531.063 99.144 531.263 99.528 531.663 99.768C532.079 100.008 532.583 100.128 533.175 100.128C533.767 100.128 534.335 100 534.879 99.744C535.439 99.472 535.991 99.12 536.535 98.688V96.192C535.479 96.272 534.599 96.384 533.895 96.528C533.191 96.656 532.631 96.824 532.215 97.032C531.799 97.24 531.503 97.48 531.327 97.752C531.151 98.008 531.063 98.296 531.063 98.616ZM543.054 85.056H545.838V89.424L545.742 91.488C546.254 91.008 546.83 90.632 547.47 90.36C548.11 90.072 548.75 89.928 549.39 89.928C550.158 89.928 550.838 90.072 551.43 90.36C552.022 90.632 552.526 91.032 552.942 91.56C553.358 92.072 553.67 92.696 553.878 93.432C554.102 94.168 554.214 94.992 554.214 95.904C554.214 96.912 554.07 97.816 553.782 98.616C553.494 99.4 553.102 100.064 552.606 100.608C552.126 101.152 551.566 101.568 550.926 101.856C550.302 102.144 549.654 102.288 548.982 102.288C548.422 102.288 547.838 102.152 547.23 101.88C546.622 101.608 546.062 101.216 545.55 100.704H545.478L545.238 102H543.054V85.056ZM545.838 98.928C546.27 99.328 546.718 99.608 547.182 99.768C547.646 99.928 548.062 100.008 548.43 100.008C549.262 100.008 549.958 99.672 550.518 99C551.078 98.312 551.358 97.296 551.358 95.952C551.358 94.768 551.142 93.848 550.71 93.192C550.278 92.536 549.582 92.208 548.622 92.208C548.174 92.208 547.718 92.32 547.254 92.544C546.79 92.768 546.318 93.128 545.838 93.624V98.928ZM557.229 96.12C557.229 95.144 557.405 94.272 557.757 93.504C558.125 92.736 558.613 92.088 559.221 91.56C559.829 91.032 560.541 90.632 561.357 90.36C562.173 90.072 563.029 89.928 563.925 89.928C564.885 89.928 565.725 90.088 566.445 90.408C567.181 90.728 567.797 91.12 568.293 91.584L566.973 93.312C566.509 92.944 566.037 92.664 565.557 92.472C565.093 92.28 564.597 92.184 564.069 92.184C562.885 92.184 561.925 92.544 561.189 93.264C560.453 93.968 560.085 94.92 560.085 96.12C560.085 96.712 560.181 97.248 560.373 97.728C560.565 98.208 560.829 98.624 561.165 98.976C561.517 99.312 561.933 99.576 562.413 99.768C562.893 99.944 563.421 100.032 563.997 100.032C564.669 100.032 565.277 99.904 565.821 99.648C566.381 99.392 566.893 99.088 567.357 98.736L568.509 100.512C567.837 101.104 567.085 101.552 566.253 101.856C565.421 102.144 564.581 102.288 563.733 102.288C562.805 102.288 561.941 102.152 561.141 101.88C560.357 101.608 559.669 101.208 559.077 100.68C558.501 100.152 558.045 99.504 557.709 98.736C557.389 97.968 557.229 97.096 557.229 96.12Z" fill="#B82629"/>
<rect x="416" y="26" width="478" height="46" stroke="black"/>
<rect x="416" y="72" width="478" height="44" stroke="black"/>
<rect x="416" y="72" width="478" height="44" stroke="black"/>
<path d="M300.923 142.832C300.923 142.176 301.075 141.6 301.379 141.104C301.683 140.592 302.163 140.16 302.819 139.808C303.475 139.456 304.315 139.168 305.339 138.944C306.363 138.72 307.603 138.56 309.059 138.464C309.011 137.792 308.771 137.24 308.339 136.808C307.907 136.376 307.211 136.16 306.251 136.16C305.579 136.16 304.915 136.288 304.259 136.544C303.619 136.784 302.995 137.072 302.387 137.408L301.379 135.56C302.099 135.144 302.923 134.768 303.851 134.432C304.779 134.096 305.747 133.928 306.755 133.928C308.403 133.928 309.659 134.368 310.523 135.248C311.387 136.112 311.819 137.368 311.819 139.016V146H309.563L309.347 144.536H309.275C308.651 145.016 307.955 145.432 307.187 145.784C306.435 146.12 305.659 146.288 304.859 146.288C304.283 146.288 303.755 146.2 303.275 146.024C302.795 145.864 302.379 145.632 302.027 145.328C301.675 145.024 301.403 144.664 301.211 144.248C301.019 143.816 300.923 143.344 300.923 142.832ZM303.587 142.616C303.587 143.144 303.787 143.528 304.187 143.768C304.603 144.008 305.107 144.128 305.699 144.128C306.291 144.128 306.859 144 307.403 143.744C307.963 143.472 308.515 143.12 309.059 142.688V140.192C308.003 140.272 307.123 140.384 306.419 140.528C305.715 140.656 305.155 140.824 304.739 141.032C304.323 141.24 304.027 141.48 303.851 141.752C303.675 142.008 303.587 142.296 303.587 142.616ZM315.577 129.056H318.361V133.424L318.265 135.488C318.777 135.008 319.353 134.632 319.993 134.36C320.633 134.072 321.273 133.928 321.913 133.928C322.681 133.928 323.361 134.072 323.953 134.36C324.545 134.632 325.049 135.032 325.465 135.56C325.881 136.072 326.193 136.696 326.401 137.432C326.625 138.168 326.737 138.992 326.737 139.904C326.737 140.912 326.593 141.816 326.305 142.616C326.017 143.4 325.625 144.064 325.129 144.608C324.649 145.152 324.089 145.568 323.449 145.856C322.825 146.144 322.177 146.288 321.505 146.288C320.945 146.288 320.361 146.152 319.753 145.88C319.145 145.608 318.585 145.216 318.073 144.704H318.001L317.761 146H315.577V129.056ZM318.361 142.928C318.793 143.328 319.241 143.608 319.705 143.768C320.169 143.928 320.585 144.008 320.953 144.008C321.785 144.008 322.481 143.672 323.041 143C323.601 142.312 323.881 141.296 323.881 139.952C323.881 138.768 323.665 137.848 323.233 137.192C322.801 136.536 322.105 136.208 321.145 136.208C320.697 136.208 320.241 136.32 319.777 136.544C319.313 136.768 318.841 137.128 318.361 137.624V142.928ZM329.752 140.12C329.752 139.144 329.928 138.272 330.28 137.504C330.648 136.736 331.136 136.088 331.744 135.56C332.352 135.032 333.064 134.632 333.88 134.36C334.696 134.072 335.552 133.928 336.448 133.928C337.408 133.928 338.248 134.088 338.968 134.408C339.704 134.728 340.32 135.12 340.816 135.584L339.496 137.312C339.032 136.944 338.56 136.664 338.08 136.472C337.616 136.28 337.12 136.184 336.592 136.184C335.408 136.184 334.448 136.544 333.712 137.264C332.976 137.968 332.608 138.92 332.608 140.12C332.608 140.712 332.704 141.248 332.896 141.728C333.088 142.208 333.352 142.624 333.688 142.976C334.04 143.312 334.456 143.576 334.936 143.768C335.416 143.944 335.944 144.032 336.52 144.032C337.192 144.032 337.8 143.904 338.344 143.648C338.904 143.392 339.416 143.088 339.88 142.736L341.032 144.512C340.36 145.104 339.608 145.552 338.776 145.856C337.944 146.144 337.104 146.288 336.256 146.288C335.328 146.288 334.464 146.152 333.664 145.88C332.88 145.608 332.192 145.208 331.6 144.68C331.024 144.152 330.568 143.504 330.232 142.736C329.912 141.968 329.752 141.096 329.752 140.12Z" fill="#B82629"/>
<path d="M353.095 134.72C352.535 134.304 351.999 133.984 351.487 133.76C350.991 133.536 350.375 133.424 349.639 133.424C348.967 133.424 348.439 133.56 348.055 133.832C347.687 134.104 347.503 134.48 347.503 134.96C347.503 135.328 347.679 135.632 348.031 135.872C348.399 136.112 348.855 136.344 349.399 136.568C349.943 136.776 350.527 137 351.151 137.24C351.791 137.464 352.383 137.744 352.927 138.08C353.471 138.416 353.919 138.832 354.271 139.328C354.639 139.808 354.823 140.416 354.823 141.152C354.823 142.176 354.455 143.048 353.719 143.768C352.999 144.472 351.983 144.92 350.671 145.112V148.64H348.751V145.16C347.919 145.08 347.095 144.872 346.279 144.536C345.463 144.184 344.759 143.76 344.167 143.264L345.415 141.368C346.103 141.832 346.799 142.208 347.503 142.496C348.207 142.784 348.975 142.928 349.807 142.928C350.575 142.928 351.151 142.784 351.535 142.496C351.935 142.208 352.135 141.824 352.135 141.344C352.135 140.928 351.951 140.584 351.583 140.312C351.231 140.04 350.783 139.792 350.239 139.568C349.695 139.328 349.111 139.096 348.487 138.872C347.863 138.632 347.279 138.344 346.735 138.008C346.191 137.672 345.735 137.272 345.367 136.808C345.015 136.328 344.839 135.728 344.839 135.008C344.839 133.968 345.191 133.12 345.895 132.464C346.599 131.808 347.551 131.4 348.751 131.24V128.096H350.671V131.216C351.519 131.312 352.239 131.528 352.831 131.864C353.439 132.2 353.991 132.616 354.487 133.112L353.095 134.72Z" fill="#0072B2"/>
<rect x="234" y="116" width="182" height="44" stroke="black"/>
<rect x="234" y="116" width="182" height="44" stroke="black"/>
<path d="M127.41 138.113H120.016V144.16H128.605V146H117.766V128.938H128.488V130.789H120.016V136.273H127.41V138.113ZM133.117 133.32L133.188 134.914C134.156 133.695 135.422 133.086 136.984 133.086C139.664 133.086 141.016 134.598 141.039 137.621V146H138.871V137.609C138.863 136.695 138.652 136.02 138.238 135.582C137.832 135.145 137.195 134.926 136.328 134.926C135.625 134.926 135.008 135.113 134.477 135.488C133.945 135.863 133.531 136.355 133.234 136.965V146H131.066V133.32H133.117ZM143.781 139.555C143.781 137.609 144.242 136.047 145.164 134.867C146.086 133.68 147.293 133.086 148.785 133.086C150.27 133.086 151.445 133.594 152.312 134.609V128H154.48V146H152.488L152.383 144.641C151.516 145.703 150.309 146.234 148.762 146.234C147.293 146.234 146.094 145.633 145.164 144.43C144.242 143.227 143.781 141.656 143.781 139.719V139.555ZM145.949 139.801C145.949 141.238 146.246 142.363 146.84 143.176C147.434 143.988 148.254 144.395 149.301 144.395C150.676 144.395 151.68 143.777 152.312 142.543V136.719C151.664 135.523 150.668 134.926 149.324 134.926C148.262 134.926 147.434 135.336 146.84 136.156C146.246 136.977 145.949 138.191 145.949 139.801Z" fill="black"/>
<rect x="34" y="116" width="200" height="44" stroke="black"/>
<rect x="34" y="116" width="200" height="44" stroke="black"/>
<path d="M432.887 128.938L438.465 142.859L444.043 128.938H446.961V146H444.711V139.355L444.922 132.184L439.32 146H437.598L432.008 132.219L432.23 139.355V146H429.98V128.938H432.887ZM458.422 146C458.297 145.75 458.195 145.305 458.117 144.664C457.109 145.711 455.906 146.234 454.508 146.234C453.258 146.234 452.23 145.883 451.426 145.18C450.629 144.469 450.23 143.57 450.23 142.484C450.23 141.164 450.73 140.141 451.73 139.414C452.738 138.68 454.152 138.312 455.973 138.312H458.082V137.316C458.082 136.559 457.855 135.957 457.402 135.512C456.949 135.059 456.281 134.832 455.398 134.832C454.625 134.832 453.977 135.027 453.453 135.418C452.93 135.809 452.668 136.281 452.668 136.836H450.488C450.488 136.203 450.711 135.594 451.156 135.008C451.609 134.414 452.219 133.945 452.984 133.602C453.758 133.258 454.605 133.086 455.527 133.086C456.988 133.086 458.133 133.453 458.961 134.188C459.789 134.914 460.219 135.918 460.25 137.199V143.035C460.25 144.199 460.398 145.125 460.695 145.812V146H458.422ZM454.824 144.348C455.504 144.348 456.148 144.172 456.758 143.82C457.367 143.469 457.809 143.012 458.082 142.449V139.848H456.383C453.727 139.848 452.398 140.625 452.398 142.18C452.398 142.859 452.625 143.391 453.078 143.773C453.531 144.156 454.113 144.348 454.824 144.348ZM466.59 130.25V133.32H468.957V134.996H466.59V142.859C466.59 143.367 466.695 143.75 466.906 144.008C467.117 144.258 467.477 144.383 467.984 144.383C468.234 144.383 468.578 144.336 469.016 144.242V146C468.445 146.156 467.891 146.234 467.352 146.234C466.383 146.234 465.652 145.941 465.16 145.355C464.668 144.77 464.422 143.938 464.422 142.859V134.996H462.113V133.32H464.422V130.25H466.59ZM476.586 144.465C477.359 144.465 478.035 144.23 478.613 143.762C479.191 143.293 479.512 142.707 479.574 142.004H481.625C481.586 142.73 481.336 143.422 480.875 144.078C480.414 144.734 479.797 145.258 479.023 145.648C478.258 146.039 477.445 146.234 476.586 146.234C474.859 146.234 473.484 145.66 472.461 144.512C471.445 143.355 470.938 141.777 470.938 139.777V139.414C470.938 138.18 471.164 137.082 471.617 136.121C472.07 135.16 472.719 134.414 473.562 133.883C474.414 133.352 475.418 133.086 476.574 133.086C477.996 133.086 479.176 133.512 480.113 134.363C481.059 135.215 481.562 136.32 481.625 137.68H479.574C479.512 136.859 479.199 136.188 478.637 135.664C478.082 135.133 477.395 134.867 476.574 134.867C475.473 134.867 474.617 135.266 474.008 136.062C473.406 136.852 473.105 137.996 473.105 139.496V139.906C473.105 141.367 473.406 142.492 474.008 143.281C474.609 144.07 475.469 144.465 476.586 144.465ZM486.23 134.855C487.191 133.676 488.441 133.086 489.98 133.086C492.66 133.086 494.012 134.598 494.035 137.621V146H491.867V137.609C491.859 136.695 491.648 136.02 491.234 135.582C490.828 135.145 490.191 134.926 489.324 134.926C488.621 134.926 488.004 135.113 487.473 135.488C486.941 135.863 486.527 136.355 486.23 136.965V146H484.062V128H486.23V134.855ZM502.543 146.234C500.824 146.234 499.426 145.672 498.348 144.547C497.27 143.414 496.73 141.902 496.73 140.012V139.613C496.73 138.355 496.969 137.234 497.445 136.25C497.93 135.258 498.602 134.484 499.461 133.93C500.328 133.367 501.266 133.086 502.273 133.086C503.922 133.086 505.203 133.629 506.117 134.715C507.031 135.801 507.488 137.355 507.488 139.379V140.281H498.898C498.93 141.531 499.293 142.543 499.988 143.316C500.691 144.082 501.582 144.465 502.66 144.465C503.426 144.465 504.074 144.309 504.605 143.996C505.137 143.684 505.602 143.27 506 142.754L507.324 143.785C506.262 145.418 504.668 146.234 502.543 146.234ZM502.273 134.867C501.398 134.867 500.664 135.188 500.07 135.828C499.477 136.461 499.109 137.352 498.969 138.5H505.32V138.336C505.258 137.234 504.961 136.383 504.43 135.781C503.898 135.172 503.18 134.867 502.273 134.867ZM517.391 142.637C517.391 142.051 517.168 141.598 516.723 141.277C516.285 140.949 515.516 140.668 514.414 140.434C513.32 140.199 512.449 139.918 511.801 139.59C511.16 139.262 510.684 138.871 510.371 138.418C510.066 137.965 509.914 137.426 509.914 136.801C509.914 135.762 510.352 134.883 511.227 134.164C512.109 133.445 513.234 133.086 514.602 133.086C516.039 133.086 517.203 133.457 518.094 134.199C518.992 134.941 519.441 135.891 519.441 137.047H517.262C517.262 136.453 517.008 135.941 516.5 135.512C516 135.082 515.367 134.867 514.602 134.867C513.812 134.867 513.195 135.039 512.75 135.383C512.305 135.727 512.082 136.176 512.082 136.73C512.082 137.254 512.289 137.648 512.703 137.914C513.117 138.18 513.863 138.434 514.941 138.676C516.027 138.918 516.906 139.207 517.578 139.543C518.25 139.879 518.746 140.285 519.066 140.762C519.395 141.23 519.559 141.805 519.559 142.484C519.559 143.617 519.105 144.527 518.199 145.215C517.293 145.895 516.117 146.234 514.672 146.234C513.656 146.234 512.758 146.055 511.977 145.695C511.195 145.336 510.582 144.836 510.137 144.195C509.699 143.547 509.48 142.848 509.48 142.098H511.648C511.688 142.824 511.977 143.402 512.516 143.832C513.062 144.254 513.781 144.465 514.672 144.465C515.492 144.465 516.148 144.301 516.641 143.973C517.141 143.637 517.391 143.191 517.391 142.637ZM576.887 139.543C576.887 138.301 577.129 137.184 577.613 136.191C578.105 135.199 578.785 134.434 579.652 133.895C580.527 133.355 581.523 133.086 582.641 133.086C584.367 133.086 585.762 133.684 586.824 134.879C587.895 136.074 588.43 137.664 588.43 139.648V139.801C588.43 141.035 588.191 142.145 587.715 143.129C587.246 144.105 586.57 144.867 585.688 145.414C584.812 145.961 583.805 146.234 582.664 146.234C580.945 146.234 579.551 145.637 578.48 144.441C577.418 143.246 576.887 141.664 576.887 139.695V139.543ZM579.066 139.801C579.066 141.207 579.391 142.336 580.039 143.188C580.695 144.039 581.57 144.465 582.664 144.465C583.766 144.465 584.641 144.035 585.289 143.176C585.938 142.309 586.262 141.098 586.262 139.543C586.262 138.152 585.93 137.027 585.266 136.168C584.609 135.301 583.734 134.867 582.641 134.867C581.57 134.867 580.707 135.293 580.051 136.145C579.395 136.996 579.066 138.215 579.066 139.801ZM593.199 133.32L593.27 134.914C594.238 133.695 595.504 133.086 597.066 133.086C599.746 133.086 601.098 134.598 601.121 137.621V146H598.953V137.609C598.945 136.695 598.734 136.02 598.32 135.582C597.914 135.145 597.277 134.926 596.41 134.926C595.707 134.926 595.09 135.113 594.559 135.488C594.027 135.863 593.613 136.355 593.316 136.965V146H591.148V133.32H593.199ZM606.746 146H604.578V128H606.746V146ZM614.375 142.824L617.328 133.32H619.648L614.551 147.957C613.762 150.066 612.508 151.121 610.789 151.121L610.379 151.086L609.57 150.934V149.176L610.156 149.223C610.891 149.223 611.461 149.074 611.867 148.777C612.281 148.48 612.621 147.938 612.887 147.148L613.367 145.859L608.844 133.32H611.211L614.375 142.824ZM635.375 146C635.25 145.75 635.148 145.305 635.07 144.664C634.062 145.711 632.859 146.234 631.461 146.234C630.211 146.234 629.184 145.883 628.379 145.18C627.582 144.469 627.184 143.57 627.184 142.484C627.184 141.164 627.684 140.141 628.684 139.414C629.691 138.68 631.105 138.312 632.926 138.312H635.035V137.316C635.035 136.559 634.809 135.957 634.355 135.512C633.902 135.059 633.234 134.832 632.352 134.832C631.578 134.832 630.93 135.027 630.406 135.418C629.883 135.809 629.621 136.281 629.621 136.836H627.441C627.441 136.203 627.664 135.594 628.109 135.008C628.562 134.414 629.172 133.945 629.938 133.602C630.711 133.258 631.559 133.086 632.48 133.086C633.941 133.086 635.086 133.453 635.914 134.188C636.742 134.914 637.172 135.918 637.203 137.199V143.035C637.203 144.199 637.352 145.125 637.648 145.812V146H635.375ZM631.777 144.348C632.457 144.348 633.102 144.172 633.711 143.82C634.32 143.469 634.762 143.012 635.035 142.449V139.848H633.336C630.68 139.848 629.352 140.625 629.352 142.18C629.352 142.859 629.578 143.391 630.031 143.773C630.484 144.156 631.066 144.348 631.777 144.348ZM643.543 130.25V133.32H645.91V134.996H643.543V142.859C643.543 143.367 643.648 143.75 643.859 144.008C644.07 144.258 644.43 144.383 644.938 144.383C645.188 144.383 645.531 144.336 645.969 144.242V146C645.398 146.156 644.844 146.234 644.305 146.234C643.336 146.234 642.605 145.941 642.113 145.355C641.621 144.77 641.375 143.938 641.375 142.859V134.996H639.066V133.32H641.375V130.25H643.543ZM657.348 130.25V133.32H659.715V134.996H657.348V142.859C657.348 143.367 657.453 143.75 657.664 144.008C657.875 144.258 658.234 144.383 658.742 144.383C658.992 144.383 659.336 144.336 659.773 144.242V146C659.203 146.156 658.648 146.234 658.109 146.234C657.141 146.234 656.41 145.941 655.918 145.355C655.426 144.77 655.18 143.938 655.18 142.859V134.996H652.871V133.32H655.18V130.25H657.348ZM664.426 134.855C665.387 133.676 666.637 133.086 668.176 133.086C670.855 133.086 672.207 134.598 672.23 137.621V146H670.062V137.609C670.055 136.695 669.844 136.02 669.43 135.582C669.023 135.145 668.387 134.926 667.52 134.926C666.816 134.926 666.199 135.113 665.668 135.488C665.137 135.863 664.723 136.355 664.426 136.965V146H662.258V128H664.426V134.855ZM680.738 146.234C679.02 146.234 677.621 145.672 676.543 144.547C675.465 143.414 674.926 141.902 674.926 140.012V139.613C674.926 138.355 675.164 137.234 675.641 136.25C676.125 135.258 676.797 134.484 677.656 133.93C678.523 133.367 679.461 133.086 680.469 133.086C682.117 133.086 683.398 133.629 684.312 134.715C685.227 135.801 685.684 137.355 685.684 139.379V140.281H677.094C677.125 141.531 677.488 142.543 678.184 143.316C678.887 144.082 679.777 144.465 680.855 144.465C681.621 144.465 682.27 144.309 682.801 143.996C683.332 143.684 683.797 143.27 684.195 142.754L685.52 143.785C684.457 145.418 682.863 146.234 680.738 146.234ZM680.469 134.867C679.594 134.867 678.859 135.188 678.266 135.828C677.672 136.461 677.305 137.352 677.164 138.5H683.516V138.336C683.453 137.234 683.156 136.383 682.625 135.781C682.094 135.172 681.375 134.867 680.469 134.867ZM699.418 146.234C697.699 146.234 696.301 145.672 695.223 144.547C694.145 143.414 693.605 141.902 693.605 140.012V139.613C693.605 138.355 693.844 137.234 694.32 136.25C694.805 135.258 695.477 134.484 696.336 133.93C697.203 133.367 698.141 133.086 699.148 133.086C700.797 133.086 702.078 133.629 702.992 134.715C703.906 135.801 704.363 137.355 704.363 139.379V140.281H695.773C695.805 141.531 696.168 142.543 696.863 143.316C697.566 144.082 698.457 144.465 699.535 144.465C700.301 144.465 700.949 144.309 701.48 143.996C702.012 143.684 702.477 143.27 702.875 142.754L704.199 143.785C703.137 145.418 701.543 146.234 699.418 146.234ZM699.148 134.867C698.273 134.867 697.539 135.188 696.945 135.828C696.352 136.461 695.984 137.352 695.844 138.5H702.195V138.336C702.133 137.234 701.836 136.383 701.305 135.781C700.773 135.172 700.055 134.867 699.148 134.867ZM708.934 133.32L709.004 134.914C709.973 133.695 711.238 133.086 712.801 133.086C715.48 133.086 716.832 134.598 716.855 137.621V146H714.688V137.609C714.68 136.695 714.469 136.02 714.055 135.582C713.648 135.145 713.012 134.926 712.145 134.926C711.441 134.926 710.824 135.113 710.293 135.488C709.762 135.863 709.348 136.355 709.051 136.965V146H706.883V133.32H708.934ZM719.598 139.555C719.598 137.609 720.059 136.047 720.98 134.867C721.902 133.68 723.109 133.086 724.602 133.086C726.086 133.086 727.262 133.594 728.129 134.609V128H730.297V146H728.305L728.199 144.641C727.332 145.703 726.125 146.234 724.578 146.234C723.109 146.234 721.91 145.633 720.98 144.43C720.059 143.227 719.598 141.656 719.598 139.719V139.555ZM721.766 139.801C721.766 141.238 722.062 142.363 722.656 143.176C723.25 143.988 724.07 144.395 725.117 144.395C726.492 144.395 727.496 143.777 728.129 142.543V136.719C727.48 135.523 726.484 134.926 725.141 134.926C724.078 134.926 723.25 135.336 722.656 136.156C722.062 136.977 721.766 138.191 721.766 139.801ZM739.051 139.543C739.051 138.301 739.293 137.184 739.777 136.191C740.27 135.199 740.949 134.434 741.816 133.895C742.691 133.355 743.688 133.086 744.805 133.086C746.531 133.086 747.926 133.684 748.988 134.879C750.059 136.074 750.594 137.664 750.594 139.648V139.801C750.594 141.035 750.355 142.145 749.879 143.129C749.41 144.105 748.734 144.867 747.852 145.414C746.977 145.961 745.969 146.234 744.828 146.234C743.109 146.234 741.715 145.637 740.645 144.441C739.582 143.246 739.051 141.664 739.051 139.695V139.543ZM741.23 139.801C741.23 141.207 741.555 142.336 742.203 143.188C742.859 144.039 743.734 144.465 744.828 144.465C745.93 144.465 746.805 144.035 747.453 143.176C748.102 142.309 748.426 141.098 748.426 139.543C748.426 138.152 748.094 137.027 747.43 136.168C746.773 135.301 745.898 134.867 744.805 134.867C743.734 134.867 742.871 135.293 742.215 136.145C741.559 136.996 741.23 138.215 741.23 139.801ZM754.379 146V134.996H752.375V133.32H754.379V132.02C754.379 130.66 754.742 129.609 755.469 128.867C756.195 128.125 757.223 127.754 758.551 127.754C759.051 127.754 759.547 127.82 760.039 127.953L759.922 129.711C759.555 129.641 759.164 129.605 758.75 129.605C758.047 129.605 757.504 129.812 757.121 130.227C756.738 130.633 756.547 131.219 756.547 131.984V133.32H759.254V134.996H756.547V146H754.379ZM770.551 130.25V133.32H772.918V134.996H770.551V142.859C770.551 143.367 770.656 143.75 770.867 144.008C771.078 144.258 771.438 144.383 771.945 144.383C772.195 144.383 772.539 144.336 772.977 144.242V146C772.406 146.156 771.852 146.234 771.312 146.234C770.344 146.234 769.613 145.941 769.121 145.355C768.629 144.77 768.383 143.938 768.383 142.859V134.996H766.074V133.32H768.383V130.25H770.551ZM777.629 134.855C778.59 133.676 779.84 133.086 781.379 133.086C784.059 133.086 785.41 134.598 785.434 137.621V146H783.266V137.609C783.258 136.695 783.047 136.02 782.633 135.582C782.227 135.145 781.59 134.926 780.723 134.926C780.02 134.926 779.402 135.113 778.871 135.488C778.34 135.863 777.926 136.355 777.629 136.965V146H775.461V128H777.629V134.855ZM793.941 146.234C792.223 146.234 790.824 145.672 789.746 144.547C788.668 143.414 788.129 141.902 788.129 140.012V139.613C788.129 138.355 788.367 137.234 788.844 136.25C789.328 135.258 790 134.484 790.859 133.93C791.727 133.367 792.664 133.086 793.672 133.086C795.32 133.086 796.602 133.629 797.516 134.715C798.43 135.801 798.887 137.355 798.887 139.379V140.281H790.297C790.328 141.531 790.691 142.543 791.387 143.316C792.09 144.082 792.98 144.465 794.059 144.465C794.824 144.465 795.473 144.309 796.004 143.996C796.535 143.684 797 143.27 797.398 142.754L798.723 143.785C797.66 145.418 796.066 146.234 793.941 146.234ZM793.672 134.867C792.797 134.867 792.062 135.188 791.469 135.828C790.875 136.461 790.508 137.352 790.367 138.5H796.719V138.336C796.656 137.234 796.359 136.383 795.828 135.781C795.297 135.172 794.578 134.867 793.672 134.867ZM814.742 142.637C814.742 142.051 814.52 141.598 814.074 141.277C813.637 140.949 812.867 140.668 811.766 140.434C810.672 140.199 809.801 139.918 809.152 139.59C808.512 139.262 808.035 138.871 807.723 138.418C807.418 137.965 807.266 137.426 807.266 136.801C807.266 135.762 807.703 134.883 808.578 134.164C809.461 133.445 810.586 133.086 811.953 133.086C813.391 133.086 814.555 133.457 815.445 134.199C816.344 134.941 816.793 135.891 816.793 137.047H814.613C814.613 136.453 814.359 135.941 813.852 135.512C813.352 135.082 812.719 134.867 811.953 134.867C811.164 134.867 810.547 135.039 810.102 135.383C809.656 135.727 809.434 136.176 809.434 136.73C809.434 137.254 809.641 137.648 810.055 137.914C810.469 138.18 811.215 138.434 812.293 138.676C813.379 138.918 814.258 139.207 814.93 139.543C815.602 139.879 816.098 140.285 816.418 140.762C816.746 141.23 816.91 141.805 816.91 142.484C816.91 143.617 816.457 144.527 815.551 145.215C814.645 145.895 813.469 146.234 812.023 146.234C811.008 146.234 810.109 146.055 809.328 145.695C808.547 145.336 807.934 144.836 807.488 144.195C807.051 143.547 806.832 142.848 806.832 142.098H809C809.039 142.824 809.328 143.402 809.867 143.832C810.414 144.254 811.133 144.465 812.023 144.465C812.844 144.465 813.5 144.301 813.992 143.973C814.492 143.637 814.742 143.191 814.742 142.637ZM822.676 130.25V133.32H825.043V134.996H822.676V142.859C822.676 143.367 822.781 143.75 822.992 144.008C823.203 144.258 823.562 144.383 824.07 144.383C824.32 144.383 824.664 144.336 825.102 144.242V146C824.531 146.156 823.977 146.234 823.438 146.234C822.469 146.234 821.738 145.941 821.246 145.355C820.754 144.77 820.508 143.938 820.508 142.859V134.996H818.199V133.32H820.508V130.25H822.676ZM833.715 135.266C833.387 135.211 833.031 135.184 832.648 135.184C831.227 135.184 830.262 135.789 829.754 137V146H827.586V133.32H829.695L829.73 134.785C830.441 133.652 831.449 133.086 832.754 133.086C833.176 133.086 833.496 133.141 833.715 133.25V135.266ZM838.074 146H835.906V133.32H838.074V146ZM835.73 129.957C835.73 129.605 835.836 129.309 836.047 129.066C836.266 128.824 836.586 128.703 837.008 128.703C837.43 128.703 837.75 128.824 837.969 129.066C838.188 129.309 838.297 129.605 838.297 129.957C838.297 130.309 838.188 130.602 837.969 130.836C837.75 131.07 837.43 131.188 837.008 131.188C836.586 131.188 836.266 131.07 836.047 130.836C835.836 130.602 835.73 130.309 835.73 129.957ZM843.605 133.32L843.676 134.914C844.645 133.695 845.91 133.086 847.473 133.086C850.152 133.086 851.504 134.598 851.527 137.621V146H849.359V137.609C849.352 136.695 849.141 136.02 848.727 135.582C848.32 135.145 847.684 134.926 846.816 134.926C846.113 134.926 845.496 135.113 844.965 135.488C844.434 135.863 844.02 136.355 843.723 136.965V146H841.555V133.32H843.605ZM854.281 139.555C854.281 137.578 854.738 136.008 855.652 134.844C856.566 133.672 857.777 133.086 859.285 133.086C860.832 133.086 862.039 133.633 862.906 134.727L863.012 133.32H864.992V145.695C864.992 147.336 864.504 148.629 863.527 149.574C862.559 150.52 861.254 150.992 859.613 150.992C858.699 150.992 857.805 150.797 856.93 150.406C856.055 150.016 855.387 149.48 854.926 148.801L856.051 147.5C856.98 148.648 858.117 149.223 859.461 149.223C860.516 149.223 861.336 148.926 861.922 148.332C862.516 147.738 862.812 146.902 862.812 145.824V144.734C861.945 145.734 860.762 146.234 859.262 146.234C857.777 146.234 856.574 145.637 855.652 144.441C854.738 143.246 854.281 141.617 854.281 139.555ZM856.461 139.801C856.461 141.23 856.754 142.355 857.34 143.176C857.926 143.988 858.746 144.395 859.801 144.395C861.168 144.395 862.172 143.773 862.812 142.531V136.742C862.148 135.531 861.152 134.926 859.824 134.926C858.77 134.926 857.945 135.336 857.352 136.156C856.758 136.977 856.461 138.191 856.461 139.801Z" fill="black"/>
<path d="M528.399 142.832C528.399 142.176 528.551 141.6 528.855 141.104C529.159 140.592 529.639 140.16 530.295 139.808C530.951 139.456 531.791 139.168 532.815 138.944C533.839 138.72 535.079 138.56 536.535 138.464C536.487 137.792 536.247 137.24 535.815 136.808C535.383 136.376 534.687 136.16 533.727 136.16C533.055 136.16 532.391 136.288 531.735 136.544C531.095 136.784 530.471 137.072 529.863 137.408L528.855 135.56C529.575 135.144 530.399 134.768 531.327 134.432C532.255 134.096 533.223 133.928 534.231 133.928C535.879 133.928 537.135 134.368 537.999 135.248C538.863 136.112 539.295 137.368 539.295 139.016V146H537.039L536.823 144.536H536.751C536.127 145.016 535.431 145.432 534.663 145.784C533.911 146.12 533.135 146.288 532.335 146.288C531.759 146.288 531.231 146.2 530.751 146.024C530.271 145.864 529.855 145.632 529.503 145.328C529.151 145.024 528.879 144.664 528.687 144.248C528.495 143.816 528.399 143.344 528.399 142.832ZM531.063 142.616C531.063 143.144 531.263 143.528 531.663 143.768C532.079 144.008 532.583 144.128 533.175 144.128C533.767 144.128 534.335 144 534.879 143.744C535.439 143.472 535.991 143.12 536.535 142.688V140.192C535.479 140.272 534.599 140.384 533.895 140.528C533.191 140.656 532.631 140.824 532.215 141.032C531.799 141.24 531.503 141.48 531.327 141.752C531.151 142.008 531.063 142.296 531.063 142.616ZM543.054 129.056H545.838V133.424L545.742 135.488C546.254 135.008 546.83 134.632 547.47 134.36C548.11 134.072 548.75 133.928 549.39 133.928C550.158 133.928 550.838 134.072 551.43 134.36C552.022 134.632 552.526 135.032 552.942 135.56C553.358 136.072 553.67 136.696 553.878 137.432C554.102 138.168 554.214 138.992 554.214 139.904C554.214 140.912 554.07 141.816 553.782 142.616C553.494 143.4 553.102 144.064 552.606 144.608C552.126 145.152 551.566 145.568 550.926 145.856C550.302 146.144 549.654 146.288 548.982 146.288C548.422 146.288 547.838 146.152 547.23 145.88C546.622 145.608 546.062 145.216 545.55 144.704H545.478L545.238 146H543.054V129.056ZM545.838 142.928C546.27 143.328 546.718 143.608 547.182 143.768C547.646 143.928 548.062 144.008 548.43 144.008C549.262 144.008 549.958 143.672 550.518 143C551.078 142.312 551.358 141.296 551.358 139.952C551.358 138.768 551.142 137.848 550.71 137.192C550.278 136.536 549.582 136.208 548.622 136.208C548.174 136.208 547.718 136.32 547.254 136.544C546.79 136.768 546.318 137.128 545.838 137.624V142.928ZM557.229 140.12C557.229 139.144 557.405 138.272 557.757 137.504C558.125 136.736 558.613 136.088 559.221 135.56C559.829 135.032 560.541 134.632 561.357 134.36C562.173 134.072 563.029 133.928 563.925 133.928C564.885 133.928 565.725 134.088 566.445 134.408C567.181 134.728 567.797 135.12 568.293 135.584L566.973 137.312C566.509 136.944 566.037 136.664 565.557 136.472C565.093 136.28 564.597 136.184 564.069 136.184C562.885 136.184 561.925 136.544 561.189 137.264C560.453 137.968 560.085 138.92 560.085 140.12C560.085 140.712 560.181 141.248 560.373 141.728C560.565 142.208 560.829 142.624 561.165 142.976C561.517 143.312 561.933 143.576 562.413 143.768C562.893 143.944 563.421 144.032 563.997 144.032C564.669 144.032 565.277 143.904 565.821 143.648C566.381 143.392 566.893 143.088 567.357 142.736L568.509 144.512C567.837 145.104 567.085 145.552 566.253 145.856C565.421 146.144 564.581 146.288 563.733 146.288C562.805 146.288 561.941 146.152 561.141 145.88C560.357 145.608 559.669 145.208 559.077 144.68C558.501 144.152 558.045 143.504 557.709 142.736C557.389 141.968 557.229 141.096 557.229 140.12Z" fill="#B82629"/>
<rect x="416" y="116" width="478" height="44" stroke="black"/>
<rect x="416" y="116" width="478" height="44" stroke="black"/>
</svg>
